<svg aria-hidden="true" style="position: absolute; width: 0; height: 0; overflow: hidden;" version="1.1" xmlns="http://www.w3.org/2000/svg" xmlns:xlink="http://www.w3.org/1999/xlink">
<defs>
<symbol id="instagram" viewBox="0 0 32 32">
<path fill="transparent" d="M0 0h32v32h-32z"></path>
<path  d="M31.968 9.408c-0.074-1.701-0.349-2.869-0.742-3.882-0.424-1.111-1.054-2.059-1.85-2.837l-0.001-0.001c-0.78-0.792-1.724-1.419-2.778-1.827l-0.054-0.018c-1.019-0.394-2.181-0.667-3.882-0.742-1.712-0.082-2.256-0.101-6.602-0.101-4.344 0-4.888 0.019-6.595 0.094-1.699 0.074-2.869 0.349-3.88 0.742-1.112 0.424-2.060 1.054-2.839 1.85l-0.001 0.001c-0.791 0.78-1.418 1.724-1.825 2.778l-0.018 0.054c-0.395 1.019-0.669 2.181-0.744 3.882-0.082 1.712-0.101 2.256-0.101 6.602 0 4.344 0.019 4.888 0.094 6.595 0.075 1.701 0.35 2.869 0.744 3.882 0.426 1.11 1.055 2.057 1.849 2.837l0.001 0.001c0.8 0.813 1.77 1.443 2.832 1.843 1.019 0.395 2.182 0.67 3.882 0.744 1.707 0.075 2.251 0.094 6.595 0.094 4.346 0 4.89-0.019 6.595-0.094 1.701-0.074 2.869-0.349 3.882-0.742 2.157-0.85 3.833-2.526 4.664-4.628l0.019-0.055c0.394-1.019 0.669-2.182 0.744-3.882 0.075-1.707 0.093-2.251 0.093-6.595s-0.006-4.888-0.080-6.595zM29.088 22.474c-0.070 1.563-0.333 2.406-0.55 2.97-0.552 1.399-1.64 2.486-3.004 3.024l-0.036 0.012c-0.56 0.219-1.411 0.482-2.968 0.55-1.688 0.075-2.194 0.094-6.464 0.094-4.269 0-4.782-0.019-6.464-0.094-1.563-0.069-2.406-0.331-2.97-0.55-0.721-0.269-1.334-0.676-1.836-1.192l-0.001-0.001c-0.517-0.503-0.924-1.117-1.184-1.803l-0.011-0.034c-0.218-0.563-0.48-1.413-0.549-2.97-0.075-1.688-0.094-2.195-0.094-6.464 0-4.27 0.019-4.784 0.094-6.464 0.069-1.563 0.331-2.406 0.549-2.97 0.269-0.722 0.678-1.337 1.198-1.837l0.002-0.002c0.504-0.517 1.119-0.923 1.806-1.182l0.034-0.011c0.56-0.219 1.411-0.48 2.968-0.55 1.688-0.074 2.195-0.093 6.464-0.093 4.275 0 4.782 0.019 6.464 0.093 1.563 0.069 2.406 0.331 2.97 0.55 0.693 0.256 1.325 0.662 1.837 1.194 0.531 0.52 0.938 1.144 1.195 1.84 0.218 0.56 0.48 1.411 0.549 2.968 0.075 1.688 0.094 2.194 0.094 6.464 0 4.269-0.019 4.768-0.094 6.458z"></path>
<path  d="M16.059 7.782c-4.539 0.002-8.218 3.682-8.219 8.221v0c0 0 0 0.001 0 0.002 0 4.541 3.681 8.222 8.222 8.222s8.222-3.681 8.222-8.222c0-4.541-3.681-8.222-8.222-8.222-0.001 0-0.001 0-0.002 0h0zM16.059 21.334c-2.945-0-5.332-2.388-5.332-5.333s2.388-5.333 5.333-5.333c0 0 0.001 0 0.001 0h-0c2.946 0 5.334 2.388 5.334 5.334s-2.388 5.334-5.334 5.334v0zM26.525 7.458c0 1.060-0.86 1.92-1.92 1.92s-1.92-0.86-1.92-1.92v0c0-1.060 0.86-1.92 1.92-1.92s1.92 0.86 1.92 1.92v0z"></path>
</symbol>
<symbol id="twitter" viewBox="0 0 32 32">
<path d="M32 6.078c-1.1 0.493-2.376 0.857-3.713 1.028l-0.068 0.007c1.36-0.817 2.382-2.078 2.873-3.579l0.013-0.046c-1.197 0.722-2.591 1.273-4.076 1.573l-0.084 0.014c-1.2-1.279-2.9-2.076-4.787-2.076-3.622 0-6.558 2.936-6.558 6.558 0 0.001 0 0.003 0 0.004v-0c0 0.52 0.043 1.021 0.152 1.496-5.454-0.266-10.28-2.88-13.522-6.861-0.564 0.949-0.899 2.092-0.902 3.313v0.001c0 2.272 1.171 4.286 2.914 5.451-1.091-0.030-2.107-0.325-2.994-0.823l0.033 0.017v0.072c0.003 3.165 2.236 5.807 5.213 6.44l0.043 0.008c-0.499 0.136-1.071 0.215-1.662 0.215-0.020 0-0.041-0-0.061-0l0.003 0c-0.419 0-0.843-0.024-1.242-0.112 0.85 2.598 3.261 4.509 6.13 4.57-2.215 1.746-5.045 2.8-8.122 2.8-0.004 0-0.008 0-0.013 0h0.001c-0.018 0-0.040 0-0.062 0-0.531 0-1.055-0.034-1.569-0.099l0.061 0.006c2.826 1.846 6.287 2.944 10.004 2.944 0.021 0 0.042-0 0.063-0h-0.003c12.072 0 18.672-10 18.672-18.669 0-0.288-0.010-0.57-0.024-0.848 1.299-0.936 2.39-2.064 3.258-3.355l0.030-0.047z"></path>
</symbol>
<symbol id="facebook" viewBox="0 0 32 32">
<path d="M21.33 5.312h2.922v-5.088c-1.232-0.143-2.66-0.224-4.107-0.224-0.052 0-0.104 0-0.157 0l0.008-0c-4.211 0-7.098 2.65-7.098 7.52v4.48h-4.648v5.688h4.648v14.312h5.699v-14.31h4.459l0.709-5.688h-5.168v-3.922c0-1.643 0.443-2.768 2.733-2.768z"></path>
</symbol>
<symbol id="linkedin" viewBox="0 0 32 32">
<path d="M31.992 32h0.008v-11.738c0-5.741-1.235-10.163-7.947-10.163-3.227 0-5.392 1.77-6.277 3.45h-0.093v-2.914h-6.365v21.363h6.627v-10.578c0-2.786 0.528-5.48 3.978-5.48 3.398 0 3.45 3.179 3.45 5.658v10.402h6.619zM0.528 10.635h6.635v21.365h-6.635v-21.365zM3.843 0c-2.123 0-3.843 1.721-3.843 3.843v0c0 2.12 1.722 3.878 3.843 3.878 2.12 0 3.842-1.757 3.842-3.878s-1.72-3.841-3.841-3.843h-0z"></path>
</symbol>
<symbol id="map-pin" viewBox="0 0 32 32">
<path    stroke-linejoin="round" stroke-linecap="round" stroke-miterlimit="4" stroke-width="1.3333" d="M26.667 13.819c0 7.635-10.667 14.181-10.667 14.181s-10.667-6.547-10.667-14.181c0-5.423 4.776-9.819 10.667-9.819s10.667 4.396 10.667 9.819v0z"></path>
<path   stroke-linejoin="round" stroke-linecap="round" stroke-miterlimit="4" stroke-width="1.3333" d="M16 18.667c2.209 0 4-1.791 4-4s-1.791-4-4-4v0c-2.209 0-4 1.791-4 4s1.791 4 4 4v0z"></path>
</symbol>
<symbol id="phone" viewBox="0 0 32 32">
<path    stroke-linejoin="round" stroke-linecap="round" stroke-miterlimit="4" stroke-width="1.3333" d="M26.667 21.337v3.217c0 0.003 0 0.006 0 0.009 0 1.186-0.961 2.147-2.147 2.147-0.068 0-0.134-0.003-0.2-0.009l0.008 0.001c-3.481-0.388-6.626-1.563-9.338-3.343l0.081 0.050c-2.608-1.675-4.761-3.828-6.386-6.353l-0.050-0.083c-1.736-2.644-2.912-5.804-3.285-9.205l-0.008-0.095c-0.006-0.058-0.009-0.125-0.009-0.193 0-1.185 0.96-2.145 2.145-2.145h3.219c0.006-0 0.013-0 0.020-0 1.079 0 1.972 0.797 2.123 1.834l0.001 0.012c0.136 1.029 0.387 2.040 0.751 3.013 0.295 0.784 0.107 1.668-0.483 2.264l-1.363 1.361c1.555 2.7 3.736 4.881 6.353 6.392l0.083 0.044 1.363-1.361c0.388-0.383 0.92-0.619 1.509-0.619 0.271 0 0.53 0.050 0.769 0.142l-0.015-0.005c0.973 0.363 1.984 0.613 3.013 0.751 1.050 0.151 1.847 1.045 1.847 2.125 0 0.019-0 0.037-0.001 0.056l0-0.003z"></path>
</symbol>
<symbol id="mail" viewBox="0 0 32 32">
<path    stroke-linejoin="round" stroke-linecap="round" stroke-miterlimit="4" stroke-width="1.3333" d="M6.4 6.667h19.2c1.32 0 2.4 1.049 2.4 2.333v14c0 1.283-1.080 2.333-2.4 2.333h-19.2c-1.32 0-2.4-1.051-2.4-2.333v-14c0-1.284 1.080-2.333 2.4-2.333z"></path>
<path    stroke-linejoin="round" stroke-linecap="round" stroke-miterlimit="4" stroke-width="1.3333" d="M26.667 9.333l-10.667 8-10.667-8"></path>
</symbol>
<symbol id="logo" viewBox="0 0 39 32"><path d="m22.371 9.64-.749-.571a.57.57 0 0 0-.8.079l-.001.001-10.36 11.897.16.177 2.566-2.366a.395.395 0 0 1 .147-.76h.007c.174 0 .321.114.371.272l.001.003 3.383-3.137a.291.291 0 0 1 .366 0h-.001l.171.126a.285.285 0 0 0 .382-.046l4.423-4.96a.473.473 0 0 0-.067-.714l-.001-.001z"/><path d="M27.24 12.989a22.87 22.87 0 0 1-7.335 3.477l-.162.037c-2.401.638-5.193 1.072-8.063 1.208l-.092.003c.055.406.155.805.297 1.189 1.554 1.406 13.257-.994 15.543-3.771.486-.577-.189-2.143-.189-2.143zm-13.897 5.868a.389.389 0 1 1 .389-.389v.006a.383.383 0 0 1-.383.383h-.006zM2.286 12.166l.091-.394 1.486.337c.123.226.198.475.223.731a2.43 2.43 0 0 1-.051.811 2.157 2.157 0 0 1-.493.997l.002-.002a1.97 1.97 0 0 1-.866.568l-.014.004a2.109 2.109 0 0 1-1.095.038l.014.003a2.001 2.001 0 0 1-.955-.504l.001.001a1.883 1.883 0 0 1-.54-.884l-.003-.013a2.15 2.15 0 0 1 .004-1.158l-.004.015c.062-.28.171-.547.326-.789.147-.22.339-.399.563-.527l.008-.004.206.314a1.64 1.64 0 0 0-.753 1.099l-.002.01a1.792 1.792 0 0 0 .02.91l-.003-.013c.077.278.229.529.44.726.217.21.488.354.783.417.286.08.589.08.874 0 .274-.09.52-.25.714-.463.2-.23.337-.507.4-.806a1.755 1.755 0 0 0-.073-1.103l.004.012-1.309-.331zM5.52 8.571l-1.331 1.777.571 1.023-.263.354-2.114-3.857.246-.337 4.303.926-.269.354-1.143-.24zm-.377-.091-2.286-.514L4 10.017 5.143 8.48zm0-3.594.343-.257 2.177 2.914L9.457 6.2l.217.291-2.131 1.594-2.4-3.2zm3.6-2.383.383-.171 1.509 3.303 2.04-.926.149.331-2.423 1.103-1.657-3.64zm7.531 1.314.086.36-2.754.646-.914-3.897 2.674-.623.08.354-2.286.531.326 1.383 2.011-.474.086.354-2.017.469.343 1.446 2.366-.549zm3.926.143-.954-1.257a2.847 2.847 0 0 1-.32 0l-1.074.034.04 1.269h-.423l-.131-4L18.858 0a1.8 1.8 0 0 1 1.217.329L20.07.325c.287.232.469.585.469.979v.016-.001c.017.282-.057.563-.211.8a1.34 1.34 0 0 1-.653.483l-.009.003 1 1.337-.463.017zm-.4-1.88a.909.909 0 0 0 .291-.752v.004-.019a.92.92 0 0 0-.336-.711l-.002-.001a1.373 1.373 0 0 0-.902-.234h.005l-1.086.04.069 2 1.063-.034a1.36 1.36 0 0 0 .9-.294l-.003.002zm3.423.817-.206 1.366L22.6 4.2l.211-1.343L21.628 0l.446.069 1.011 2.434L24.799.486l.4.086-1.977 2.326zm5.651-.24.497.646-.217.171-.497-.663-.314.749-.24-.103.32-.749-.823.109v-.274l.811-.091-.503-.646.223-.171.44.651.309-.754.246.103-.291.766.823-.114v.28l-.783.091zm1.909 4.606a1.565 1.565 0 0 1-.245-.684l-.001-.007.337-.149c.026.226.099.445.217.64.128.219.294.413.491.571.197.189.452.318.736.359l.007.001a.62.62 0 0 0 .536-.221l.001-.001a.51.51 0 0 0 .133-.345l-.002-.045v.002a1.054 1.054 0 0 0-.14-.399l.003.005a5.935 5.935 0 0 0-.359-.523l.01.014a4.995 4.995 0 0 1-.398-.603l-.013-.026a1.133 1.133 0 0 1-.149-.536v-.001a.84.84 0 0 1 .223-.571c.123-.148.283-.261.467-.324l.007-.002a1.125 1.125 0 0 1 .642.002l-.008-.002c.28.093.522.234.728.414l-.002-.002c.176.146.331.315.463.503.122.174.213.367.269.571l-.326.171a2.006 2.006 0 0 0-.256-.544l.005.007a2.068 2.068 0 0 0-.379-.391l-.004-.003a1.265 1.265 0 0 0-.731-.348l-.006-.001a.616.616 0 0 0-.536.233l-.001.001a.49.49 0 0 0-.131.39v-.002a.947.947 0 0 0 .137.406c.08.131.194.303.349.509.153.194.291.401.411.617.091.154.148.338.154.535v.002a.835.835 0 0 1-.223.571 1.02 1.02 0 0 1-.473.324l-.007.002a1.093 1.093 0 0 1-.642-.002l.008.002a2.115 2.115 0 0 1-.734-.414l.003.002a2.626 2.626 0 0 1-.565-.695l-.007-.013zm5.748.834-.806-1.143.297-.211 1.857 2.651-.297.211-.806-1.143-2.983 2.086-.24-.349 2.977-2.103zm-1.28 4.697a1.91 1.91 0 0 1 .569-.89l.002-.002c.256-.23.573-.396.924-.472l.013-.002a2.086 2.086 0 0 1 1.089.044l-.015-.004c.348.117.642.314.873.57l.002.002c.238.272.409.609.483.981l.002.014a2.167 2.167 0 0 1-.004 1.118l.004-.015a1.975 1.975 0 0 1-.569.89l-.002.002a2.111 2.111 0 0 1-2.055.441l.015.004a1.912 1.912 0 0 1-.872-.569l-.002-.002a2.137 2.137 0 0 1-.483-.975l-.002-.014a2.221 2.221 0 0 1 .032-1.136l-.004.016zM36 14.611a1.575 1.575 0 0 0 1.207.533c.446 0 .854-.165 1.166-.438l-.002.002c.211-.194.367-.44.451-.714a1.835 1.835 0 0 0-.374-1.683l.002.003a1.63 1.63 0 0 0-.726-.46l-.012-.003a1.697 1.697 0 0 0-.892.003l.012-.003c-.303.06-.568.199-.778.395l.001-.001a1.594 1.594 0 0 0-.448.709l-.003.011a1.705 1.705 0 0 0 .003.898l-.003-.012c.067.296.205.553.395.761l-.001-.001zm-1.183 4.818 1.48-.571c0-.103.034-.206.063-.314l.28-1.034-1.211-.314.109-.406 3.863 1.034-.389 1.446c-.092.435-.33.803-.659 1.06l-.004.003a1.224 1.224 0 0 1-1.094.158l.009.003a1.242 1.242 0 0 1-.977-1.205l-1.577.571.109-.429zm1.914.16a1.03 1.03 0 0 0 1.439.38l-.004.003c.246-.199.421-.478.484-.797l.001-.009.274-1.029-1.937-.52-.274 1.029a1.366 1.366 0 0 0 .02.952l-.003-.009zm-3.965 3.52-.291-.223 1.714-2.257 3.189 2.417-1.657 2.189-.291-.223 1.4-1.846-1.143-.863-1.251 1.651-.286-.217 1.28-1.651-1.183-.897-1.48 1.92zm-1.337 4.554-.817.046v-.274l.817-.006-.44-.68.223-.143.434.686.354-.766.246.131-.389.72.817-.046v.28h-.829l.44.68-.223.143-.434-.686-.377.743-.24-.137.417-.691zM24 27.206l.691.383a1.784 1.784 0 0 1 1.131-.9l.012-.003a1.77 1.77 0 0 1 .71-.074l-.007-.001c.216.017.411.092.575.208l-.003-.002a.888.888 0 0 1 .32.457c.069.226.057.469-.034.686-.151.307-.342.57-.571.794.189.101.363.226.52.371a.972.972 0 0 1 .234.394.76.76 0 0 1-.15.67l.001-.001a1.1 1.1 0 0 1-.632.438l-.008.002a.996.996 0 0 1-.709 0 .716.716 0 0 1-.41-.481l-.001-.005a.78.78 0 0 1 .042-.576l-.002.005c.131-.26.303-.497.509-.703l-1.377-.766a2.655 2.655 0 0 0-.033.829l-.001-.012h-.349a2.757 2.757 0 0 1 .119-1.013l-.005.019-.72-.4.149-.32zm.994.571 1.514.84c.198-.19.363-.411.486-.657a.723.723 0 0 0 0-.514.618.618 0 0 0-.396-.427l-.004-.001a1.123 1.123 0 0 0-.74.003l.008-.002a1.376 1.376 0 0 0-.888.735l-.004.008.023.017zm2.149 2.286a.509.509 0 0 0 .045-.427l.001.004a.703.703 0 0 0-.183-.297 2.479 2.479 0 0 0-.46-.308l-.014-.006a2.999 2.999 0 0 0-.444.559l-.007.013a.566.566 0 0 0-.045.426l-.001-.004a.483.483 0 0 0 .249.302l.003.001a.637.637 0 0 0 .451 0 .68.68 0 0 0 .381-.266l.001-.002.023.006zm-10.109 1.548.08-4h.406l-.063 3.2 1.623-2.663h.2l1.52 2.709.057-3.183h.406l-.074 4h-.349l-1.68-2.989-1.777 2.931-.349-.006zm-1.988-4.182a1.943 1.943 0 0 1 .516 1.991l.004-.014c-.1.367-.289.682-.543.931a1.91 1.91 0 0 1-.907.5l-.013.003a2.189 2.189 0 0 1-1.124-.039l.016.004a2.15 2.15 0 0 1-.961-.521l.001.001a1.918 1.918 0 0 1-.528-.889l-.003-.013a2.1 2.1 0 0 1 .572-2.011c.242-.242.548-.421.889-.511l.014-.003a2.168 2.168 0 0 1 1.118.039l-.016-.004c.378.098.704.285.966.538l-.001-.001zm-1.949-.2a1.523 1.523 0 0 0-.737.411 1.652 1.652 0 0 0-.432.748l-.003.012c-.08.286-.08.589 0 .874.067.278.212.531.417.731.209.204.469.357.759.437l.012.003a1.796 1.796 0 0 0 .898-.003l-.012.003a1.63 1.63 0 0 0 .743-.411 1.68 1.68 0 0 0 .432-.748l.003-.012a1.645 1.645 0 0 0-.003-.892l.003.012a1.613 1.613 0 0 0-.423-.731 1.718 1.718 0 0 0-.765-.432l-.012-.003a1.645 1.645 0 0 0-.892.003l.012-.003zm-4.326-2.658.154 1.571c.098.042.193.09.286.143l.931.537.629-1.109.371.211-2 3.446-1.303-.749a1.826 1.826 0 0 1-.853-.903l-.005-.012a1.256 1.256 0 0 1 .128-1.091l-.003.005c.133-.25.343-.451.6-.571a1.299 1.299 0 0 1 .832-.061l-.009-.002-.166-1.68.406.263zm-.651 1.806a1.033 1.033 0 0 0-.771.871v.005a1.034 1.034 0 0 0 .036.417l-.002-.007c.134.296.366.536.657.68l.92.531 1-1.714-.92-.531a1.401 1.401 0 0 0-.923-.28h.004v.029zm-2.731-4.486.257-.257 1.971 2.029-2.857 2.789-1.903-1.966.263-.257 1.617 1.663.977-.989-1.417-1.474.274-.263 1.446 1.486 1.063-1.034-1.691-1.726zm-4.246-2.245.137-.789.269.04-.154.811.76-.28.091.251-.771.263.634.537-.183.206-.611-.571-.143.811-.274-.051.16-.811-.766.274-.086-.223.766-.269-.634-.531.189-.206.617.537z"/>
</symbol>
<symbol id="close-modal" viewBox="0 0 32 32">
<path d="m26.667 7.303-1.97-1.97-7.808 7.808-7.808-7.808-1.97 1.97 7.808 7.808-7.808 7.808 1.97 1.97 7.808-7.808 7.808 7.808 1.97-1.97-7.808-7.808 7.808-7.808z"/>
</symbol>
   <symbol id="person" viewBox="0 0 32 32">
      <path d="M16 16a5.333 5.333 0 1 0 0-10.666A5.333 5.333 0 1 0 16 16zm0 2.667c-3.561 0-10.667 1.787-10.667 5.333v1.333c0 .732.599 1.333 1.333 1.333h18.667c.732 0 1.333-.601 1.333-1.333V24c0-3.547-7.108-5.333-10.667-5.333z"/>
    </symbol>
    <symbol id="phone" viewBox="0 0 32 32">
      <path d="m24.882 19.774-3.268-.373a2.552 2.552 0 0 0-2.11.732l-2.368 2.368c-3.669-1.894-6.585-4.81-8.427-8.372l-.051-.108 2.382-2.377a2.552 2.552 0 0 0 .731-2.122l.001.012-.373-3.243a2.578 2.578 0 0 0-2.557-2.276H6.613c-1.454 0-2.663 1.209-2.574 2.661.683 10.987 9.47 19.762 20.444 20.444 1.452.089 2.663-1.12 2.663-2.574v-2.238a2.549 2.549 0 0 0-2.253-2.532l-.012-.001z"/>
    </symbol>
    <symbol id="email" viewBox="0 0 32 32">
      <path d="M26.667 5.333H5.334A2.662 2.662 0 0 0 2.682 8l-.014 16c0 1.467 1.2 2.667 2.667 2.667h21.333c1.467 0 2.667-1.2 2.667-2.667V8c0-1.467-1.2-2.667-2.667-2.667zm-.534 5.668-9.426 5.892a1.343 1.343 0 0 1-1.421-.004l.006.003L5.866 11A1.133 1.133 0 1 1 7.07 9.083l-.004-.003 8.933 5.586 8.933-5.588a1.132 1.132 0 1 1 1.204 1.916l-.005.003z"/>
    </symbol>
    <symbol id="success" viewBox="0 0 32 32">
      <path d="M15.238 21.238a1.755 1.755 0 0 1-2.475 0l-4-4c-.681-.681-.681-1.794 0-2.475s1.794-.681 2.475 0L14 17.526l6.762-6.762c.681-.681 1.794-.681 2.475 0s.681 1.794 0 2.475l-8 8zM32 16c0 8.837-7.163 16-16 16S0 24.837 0 16C0 7.162 7.162 0 16 0s16 7.162 16 16zM16 3C8.819 3 3 8.819 3 16s5.819 13 13 13 13-5.819 13-13S23.181 3 16 3z"/>
    </symbol>
    <symbol id="warning" viewBox="0 0 32 32">
      <path d="M16 32c8.837 0 16-7.163 16-16S24.837 0 16 0 0 7.162 0 16s7.162 16 16 16zm0-24c.831 0 1.5.669 1.5 1.5v7c0 .831-.669 1.5-1.5 1.5s-1.5-.669-1.5-1.5v-7c0-.831.669-1.5 1.5-1.5zm2 14c0 1.106-.894 2-2 2s-2-.894-2-2 .894-2 2-2 2 .894 2 2z"/>
    </symbol>
   </defs>
</svg>
